<?xml version="1.0" encoding="UTF-8"?>
<svg id="Layer_2" data-name="Layer 2" xmlns="http://www.w3.org/2000/svg" viewBox="0 0 55.35 12.99">
  <defs>
    <style>
      .cls-1 {
        fill: #727373;
      }

      .cls-2 {
        fill: #ed2024;
      }

      .cls-3 {
        fill: #fff;
        font-family: TTMusselsTrl-ExtraBoldItalic, 'TT Mussels Trl';
        font-size: 4.81px;
        font-style: italic;
        font-weight: 700;
        letter-spacing: .1em;
      }

      .cls-4 {
        fill: #df8f26;
      }

      .cls-5 {
        fill: #231f20;
      }

      .cls-6 {
        fill: #2d3895;
      }
    </style>
  </defs>
  <g id="Layer_1-2" data-name="Layer 1">
    <g>
      <path class="cls-1" d="m26.29.05l.21,3.61v.87h.07l.36-.87L28.69.05h2.5l-1.46,6.88h-1.87l.88-4.15h-.08l-.35.9-1.66,3.25h-1.45l-.33-3.25.02-.9h-.08l-.88,4.15h-1.61L23.77.05h2.52Z"/>
      <path class="cls-1" d="m32.5.05h4.64l-.32,1.5h-2.77l-.33,1.58h2.43l-.31,1.41h-2.43l-.5,2.39h-1.87L32.5.05Z"/>
      <path class="cls-1" d="m38.28.05h4.65l-.31,1.43h-2.78l-.28,1.3h2.45l-.28,1.32h-2.45l-.31,1.4h2.78l-.3,1.43h-4.65L38.28.05Z"/>
      <path class="cls-1" d="m45.79,1.41l-.35.3-.18.84.2.25h2.25l.86,1.08-.42,2.02-1.32,1.08h-3.67l-.7-.9,1.43-1.12.47.61h1.69l.36-.3.17-.83-.2-.25h-2.25l-.86-1.08.43-2.03L45.01,0h3.37l.72.93-1.5,1.07-.46-.59h-1.35Z"/>
      <path class="cls-1" d="m49.72.05h5.5l-.33,1.58h-1.81l-1.12,5.3h-1.87l1.12-5.3h-1.81l.33-1.58Z"/>
    </g>
    <g>
      <polygon class="cls-4" points="16.41 0 13.67 12.99 20.56 12.99 23.3 0 16.41 0"/>
      <polygon class="cls-6" points="9.53 0 6.78 12.99 13.67 12.99 16.42 0 9.53 0"/>
      <polygon class="cls-2" points="2.74 0 0 12.99 6.89 12.99 9.63 0 2.74 0"/>
    </g>
    <polygon class="cls-5" points="54.22 12.92 21.06 12.99 22.2 7.57 55.35 7.57 54.22 12.92"/>
    <text class="cls-3" transform="translate(23.06 11.69)"><tspan x="0" y="0">Motorsport</tspan></text>
  </g>
</svg>